<svg xmlns="http://www.w3.org/2000/svg" xmlns:xlink="http://www.w3.org/1999/xlink" width="500" zoomAndPan="magnify" viewBox="0 0 375 374.999991" height="500" preserveAspectRatio="xMidYMid meet" version="1.0"><defs><clipPath id="ed3d51a0c9"><path d="M 59.582031 84 L 281 84 L 281 365.335938 L 59.582031 365.335938 Z M 59.582031 84 " clip-rule="nonzero"/></clipPath><clipPath id="7d9cf68d3e"><path d="M 94 13 L 315.332031 13 L 315.332031 294 L 94 294 Z M 94 13 " clip-rule="nonzero"/></clipPath></defs><g clip-path="url(#ed3d51a0c9)"><path fill="#ffffff" d="M 244.242188 295.234375 C 244.242188 260.3125 244.242188 225.925781 244.242188 191.53125 C 243.796875 191.363281 243.355469 191.195312 242.914062 191.019531 C 224.625 213.980469 206.332031 236.933594 187.382812 260.722656 C 180.640625 252.324219 174.175781 244.28125 167.140625 235.519531 C 132.648438 278.863281 98.429688 321.851562 63.929688 365.207031 C 62.355469 363.945312 61.09375 362.9375 59.597656 361.738281 C 133.039062 269.410156 206.203125 177.414062 280.300781 84.253906 C 280.300781 155.464844 280.300781 225.175781 280.300781 295.234375 C 268.460938 295.234375 256.929688 295.234375 244.242188 295.234375 Z M 244.242188 295.234375 " fill-opacity="1" fill-rule="nonzero"/></g><g clip-path="url(#7d9cf68d3e)"><path fill="#ffffff" d="M 94.480469 85.214844 C 121.28125 118.890625 147.246094 151.523438 173.789062 184.878906 C 175.804688 182.457031 177.574219 180.394531 179.265625 178.269531 C 221.832031 124.726562 264.382812 71.15625 307.019531 17.65625 C 308.898438 15.304688 310.675781 9.867188 315.375 16.0625 C 261.871094 83.328125 208.328125 150.652344 154.164062 218.753906 C 146.617188 209.402344 139.429688 200.492188 131.402344 190.554688 C 131.097656 193.164062 130.769531 194.664062 130.769531 196.167969 C 130.738281 211.6875 130.929688 227.214844 130.609375 242.730469 C 130.539062 245.921875 129.339844 249.632812 127.410156 252.148438 C 116.9375 265.828125 106.066406 279.207031 94.472656 293.773438 C 94.480469 223.878906 94.480469 155.304688 94.480469 85.214844 Z M 94.480469 85.214844 " fill-opacity="1" fill-rule="nonzero"/></g></svg>